<svg width="33" height="20" viewBox="0 0 33 20" fill="none" xmlns="http://www.w3.org/2000/svg">
<path d="M22.5342 0C23.1217 0 23.4159 -4.94329e-06 23.6641 0.0136719C28.2574 0.266903 31.9255 3.93494 32.1787 8.52832C32.1879 8.69437 32.1904 8.88088 32.1914 9.16211H15.6885C13.2734 4.81319 11.202 1.69861 10.8125 1.90234C10.364 2.14083 12.3318 6.7196 15.208 12.1289C16.7597 15.0472 18.2599 17.6104 19.3818 19.3154H9.65723C9.07013 19.3154 8.7764 19.3154 8.52832 19.3018C3.93494 19.0485 0.266903 15.3805 0.0136719 10.7871C-1.48543e-06 10.5389 0 10.2447 0 9.65723C8.65667e-10 9.07012 6.87832e-06 8.7764 0.0136719 8.52832C0.266903 3.93494 3.93494 0.266903 8.52832 0.0136719C8.7764 6.89622e-06 9.07012 8.77206e-10 9.65723 0H22.5342Z" fill="black"/>
</svg>
