<svg width="33" height="20" viewBox="0 0 33 20" fill="none" xmlns="http://www.w3.org/2000/svg">
<path d="M22.5342 0C23.1217 0 23.4159 -4.94329e-06 23.6641 0.0136719C28.2574 0.266903 31.9255 3.93494 32.1787 8.52832C32.1924 8.7764 32.1924 9.07013 32.1924 9.65723C32.1924 10.2447 32.1924 10.5389 32.1787 10.7871C31.9255 15.3805 28.2574 19.0485 23.6641 19.3018C23.4159 19.3154 23.1217 19.3154 22.5342 19.3154H9.65723C9.07013 19.3154 8.7764 19.3154 8.52832 19.3018C3.93494 19.0485 0.266903 15.3805 0.0136719 10.7871C-1.48543e-06 10.5389 0 10.2447 0 9.65723C8.65667e-10 9.07012 6.87832e-06 8.7764 0.0136719 8.52832C0.266903 3.93494 3.93494 0.266903 8.52832 0.0136719C8.7764 6.89622e-06 9.07012 8.77206e-10 9.65723 0H22.5342ZM19.9131 1.55859C19.4605 1.32798 17.2818 4.69673 15.0469 9.08301C12.8122 13.4689 11.3671 17.2112 11.8193 17.4424C12.2719 17.673 14.4507 14.3041 16.6855 9.91797C18.9199 5.53277 20.3646 1.79089 19.9131 1.55859Z" fill="black"/>
</svg>
