<svg width="16" height="16" viewBox="0 0 16 16" fill="none" xmlns="http://www.w3.org/2000/svg">
<path d="M13.7775 4.04271L9.005 1.26928C8.69959 1.09225 8.35285 0.999023 7.99984 0.999023C7.64684 0.999023 7.3001 1.09225 6.99469 1.26928L2.2225 4.04271C2.2037 4.05374 2.18812 4.06949 2.17729 4.08841C2.16646 4.10732 2.16076 4.12873 2.16076 4.15053C2.16076 4.17232 2.16646 4.19373 2.17729 4.21265C2.18812 4.23156 2.2037 4.24731 2.2225 4.25834L7.9375 7.62021C7.95672 7.63154 7.97863 7.63751 8.00094 7.63751C8.02325 7.63751 8.04515 7.63154 8.06437 7.62021L13.7781 4.25834C13.7969 4.24726 13.8124 4.23146 13.8232 4.21252C13.834 4.19357 13.8396 4.17214 13.8396 4.15035C13.8395 4.12855 13.8337 4.10716 13.8228 4.08827C13.812 4.06939 13.7963 4.05369 13.7775 4.04271ZM8 4.7499C7.58594 4.7499 7.25 4.52615 7.25 4.2499C7.25 3.97365 7.58594 3.7499 8 3.7499C8.41406 3.7499 8.75 3.97365 8.75 4.2499C8.75 4.52615 8.41406 4.7499 8 4.7499ZM7.4375 8.46271L1.6875 5.10865C1.66851 5.09769 1.64696 5.09191 1.62503 5.0919C1.6031 5.0919 1.58155 5.09766 1.56256 5.10862C1.54356 5.11958 1.52778 5.13534 1.51679 5.15432C1.50581 5.17331 1.50002 5.19485 1.5 5.21678V10.6518C1.50047 10.9136 1.56949 11.1708 1.70019 11.3977C1.83089 11.6247 2.01872 11.8134 2.245 11.9452L7.3125 14.9837C7.33149 14.9946 7.35304 15.0004 7.37497 15.0004C7.3969 15.0004 7.41845 14.9946 7.43744 14.9837C7.45644 14.9727 7.47223 14.957 7.48321 14.938C7.49419 14.919 7.49998 14.8975 7.5 14.8755V8.57084C7.49998 8.54892 7.49419 8.52739 7.48322 8.50841C7.47225 8.48943 7.45648 8.47367 7.4375 8.46271ZM3 11.4999C2.72375 11.4999 2.5 11.164 2.5 10.7499C2.5 10.3358 2.72375 9.9999 3 9.9999C3.27625 9.9999 3.5 10.3358 3.5 10.7499C3.5 11.164 3.27625 11.4999 3 11.4999ZM6 10.4999C5.72375 10.4999 5.5 10.164 5.5 9.7499C5.5 9.33584 5.72375 8.9999 6 8.9999C6.27625 8.9999 6.5 9.33584 6.5 9.7499C6.5 10.164 6.27625 10.4999 6 10.4999ZM14.3125 5.10959L8.5625 8.48615C8.54356 8.49708 8.52782 8.5128 8.51686 8.53171C8.50589 8.55063 8.50008 8.5721 8.5 8.59396V14.8749C8.50002 14.8968 8.50581 14.9184 8.5168 14.9374C8.52778 14.9563 8.54356 14.9721 8.56256 14.9831C8.58155 14.994 8.6031 14.9998 8.62503 14.9998C8.64696 14.9998 8.66851 14.994 8.6875 14.983L13.7547 11.9446C13.9809 11.8129 14.1688 11.6242 14.2995 11.3974C14.4303 11.1706 14.4994 10.9136 14.5 10.6518V5.21865C14.5001 5.19664 14.4945 5.17498 14.4836 5.15587C14.4726 5.13675 14.4569 5.12086 14.4379 5.10979C14.4188 5.09872 14.3972 5.09288 14.3752 5.09284C14.3532 5.09281 14.3316 5.09858 14.3125 5.10959ZM10 13.2499C9.72375 13.2499 9.5 12.914 9.5 12.4999C9.5 12.0858 9.72375 11.7499 10 11.7499C10.2763 11.7499 10.5 12.0858 10.5 12.4999C10.5 12.914 10.2763 13.2499 10 13.2499ZM10 10.4999C9.72375 10.4999 9.5 10.164 9.5 9.7499C9.5 9.33584 9.72375 8.9999 10 8.9999C10.2763 8.9999 10.5 9.33584 10.5 9.7499C10.5 10.164 10.2763 10.4999 10 10.4999ZM13 11.4999C12.7237 11.4999 12.5 11.164 12.5 10.7499C12.5 10.3358 12.7237 9.9999 13 9.9999C13.2763 9.9999 13.5 10.3358 13.5 10.7499C13.5 11.164 13.2763 11.4999 13 11.4999ZM13 8.7499C12.7237 8.7499 12.5 8.41396 12.5 7.9999C12.5 7.58584 12.7237 7.2499 13 7.2499C13.2763 7.2499 13.5 7.58584 13.5 7.9999C13.5 8.41396 13.2763 8.7499 13 8.7499Z" fill="white"/>
</svg>
