<svg width="200" height="200" viewBox="0 0 200 200" fill="none" xmlns="http://www.w3.org/2000/svg">
<path d="M11.3267 53.0679C9.74951 56.4048 8.5708 59.833 7.79053 63.3525C7.02686 66.8555 6.64502 70.3833 6.64502 73.936C6.64502 77.5054 7.03516 81.0415 7.81543 84.5444C8.6123 88.0474 9.76611 91.4839 11.2769 94.854C11.3599 95.0532 11.4014 95.2192 11.4014 95.3521C11.418 95.5015 11.3682 95.6177 11.252 95.7007C11.1357 95.8003 10.9531 95.8667 10.7041 95.8999C10.4717 95.9497 10.1479 95.9746 9.73291 95.9746C9.43408 95.9746 9.17676 95.9663 8.96094 95.9497C8.74512 95.9331 8.5542 95.8999 8.38818 95.8501C8.23877 95.8003 8.11426 95.7422 8.01465 95.6758C7.91504 95.6094 7.84033 95.5347 7.79053 95.4517C6.89404 93.7583 6.10547 92.04 5.4248 90.2969C4.74414 88.5703 4.17139 86.8105 3.70654 85.0176C3.2417 83.2246 2.89307 81.415 2.66064 79.5889C2.42822 77.7461 2.31201 75.8867 2.31201 74.0107C2.31201 72.1348 2.43652 70.2837 2.68555 68.4575C2.95117 66.6313 3.31641 64.8218 3.78125 63.0288C4.2627 61.2192 4.84375 59.4429 5.52441 57.6997C6.20508 55.9565 6.96875 54.23 7.81543 52.52C7.83203 52.4536 7.87354 52.3955 7.93994 52.3457C8.02295 52.2959 8.13086 52.2461 8.26367 52.1963C8.39648 52.1465 8.5791 52.1133 8.81152 52.0967C9.04395 52.0635 9.34277 52.0469 9.70801 52.0469C10.0898 52.0469 10.397 52.0718 10.6294 52.1216C10.8618 52.1714 11.0444 52.2378 11.1772 52.3208C11.3101 52.4038 11.3848 52.5117 11.4014 52.6445C11.418 52.7773 11.3931 52.9185 11.3267 53.0679ZM34.4978 92.9365C34.5974 93.2188 34.6472 93.4429 34.6472 93.6089C34.6472 93.7749 34.5808 93.8994 34.448 93.9824C34.3152 94.0654 34.1077 94.1235 33.8254 94.1567C33.5598 94.1899 33.2029 94.2065 32.7546 94.2065C32.323 94.2065 31.9744 94.1899 31.7087 94.1567C31.4431 94.1401 31.2273 94.1069 31.0613 94.0571C30.9119 94.0239 30.7956 93.9575 30.7126 93.8579C30.6296 93.7583 30.5632 93.6421 30.5134 93.5093L15.4475 52.1963C15.3313 51.9141 15.2732 51.6899 15.2732 51.5239C15.2732 51.3579 15.3396 51.2334 15.4724 51.1504C15.6052 51.0674 15.8044 51.0176 16.0701 51.001C16.3523 50.9678 16.7175 50.9512 17.1658 50.9512C17.5974 50.9512 17.946 50.9595 18.2117 50.9761C18.4773 50.9927 18.6931 51.0342 18.8591 51.1006C19.0251 51.1504 19.1413 51.2168 19.2078 51.2998C19.2908 51.3828 19.3572 51.4907 19.407 51.6235L34.4978 92.9365ZM47.5586 53.0679C45.9814 56.4048 44.8027 59.833 44.0224 63.3525C43.2588 66.8555 42.8769 70.3833 42.8769 73.936C42.8769 77.5054 43.2671 81.0415 44.0473 84.5444C44.8442 88.0474 45.998 91.4839 47.5088 94.854C47.5918 95.0532 47.6333 95.2192 47.6333 95.3521C47.6499 95.5015 47.6001 95.6177 47.4839 95.7007C47.3677 95.8003 47.185 95.8667 46.936 95.8999C46.7036 95.9497 46.3799 95.9746 45.9648 95.9746C45.666 95.9746 45.4087 95.9663 45.1929 95.9497C44.977 95.9331 44.7861 95.8999 44.6201 95.8501C44.4707 95.8003 44.3462 95.7422 44.2466 95.6758C44.147 95.6094 44.0722 95.5347 44.0224 95.4517C43.126 93.7583 42.3374 92.04 41.6567 90.2969C40.9761 88.5703 40.4033 86.8105 39.9385 85.0176C39.4736 83.2246 39.125 81.415 38.8926 79.5889C38.6601 77.7461 38.5439 75.8867 38.5439 74.0107C38.5439 72.1348 38.6684 70.2837 38.9175 68.4575C39.1831 66.6313 39.5483 64.8218 40.0132 63.0288C40.4946 61.2192 41.0757 59.4429 41.7563 57.6997C42.437 55.9565 43.2007 54.23 44.0473 52.52C44.0639 52.4536 44.1054 52.3955 44.1719 52.3457C44.2549 52.2959 44.3628 52.2461 44.4956 52.1963C44.6284 52.1465 44.811 52.1133 45.0434 52.0967C45.2759 52.0635 45.5747 52.0469 45.9399 52.0469C46.3218 52.0469 46.6289 52.0718 46.8613 52.1216C47.0937 52.1714 47.2763 52.2378 47.4092 52.3208C47.542 52.4038 47.6167 52.5117 47.6333 52.6445C47.6499 52.7773 47.625 52.9185 47.5586 53.0679ZM70.7297 92.9365C70.8293 93.2188 70.8791 93.4429 70.8791 93.6089C70.8791 93.7749 70.8127 93.8994 70.6799 93.9824C70.5471 94.0654 70.3396 94.1235 70.0573 94.1567C69.7917 94.1899 69.4348 94.2065 68.9865 94.2065C68.5549 94.2065 68.2063 94.1899 67.9406 94.1567C67.675 94.1401 67.4592 94.1069 67.2932 94.0571C67.1438 94.0239 67.0276 93.9575 66.9445 93.8579C66.8615 93.7583 66.7951 93.6421 66.7453 93.5093L51.6794 52.1963C51.5632 51.9141 51.5051 51.6899 51.5051 51.5239C51.5051 51.3579 51.5715 51.2334 51.7043 51.1504C51.8371 51.0674 52.0363 51.0176 52.302 51.001C52.5842 50.9678 52.9494 50.9512 53.3977 50.9512C53.8293 50.9512 54.1779 50.9595 54.4436 50.9761C54.7092 50.9927 54.925 51.0342 55.091 51.1006C55.257 51.1504 55.3733 51.2168 55.4397 51.2998C55.5227 51.3828 55.5891 51.4907 55.6389 51.6235L70.7297 92.9365ZM113.697 85.6401C113.697 85.9556 113.672 86.2295 113.622 86.4619C113.573 86.6777 113.515 86.8604 113.448 87.0098C113.382 87.1426 113.29 87.2422 113.174 87.3086C113.058 87.3584 112.934 87.3833 112.801 87.3833H99.0048C98.6562 87.3833 98.3657 87.2671 98.1332 87.0347C97.9174 86.8022 97.8095 86.4121 97.8095 85.8643V85.0176C97.8095 84.7852 97.8261 84.5776 97.8593 84.395C97.8925 84.2124 97.9423 84.0298 98.0087 83.8472C98.0751 83.6646 98.1664 83.4736 98.2827 83.2744C98.3989 83.0586 98.54 82.8179 98.706 82.5522L108.592 67.1626H99.0048C98.7392 67.1626 98.5234 67.0298 98.3574 66.7642C98.2079 66.4819 98.1332 66.0337 98.1332 65.4194C98.1332 65.1206 98.1498 64.8633 98.183 64.6475C98.2162 64.415 98.2661 64.2324 98.3325 64.0996C98.4155 63.9502 98.5068 63.8506 98.6064 63.8008C98.7226 63.7344 98.8554 63.7012 99.0048 63.7012H111.854C112.037 63.7012 112.195 63.7261 112.328 63.7759C112.477 63.8257 112.602 63.9087 112.701 64.0249C112.801 64.1411 112.875 64.2905 112.925 64.4731C112.992 64.6558 113.025 64.8882 113.025 65.1704V65.9673C113.025 66.1997 113.008 66.4155 112.975 66.6147C112.942 66.814 112.892 67.0132 112.826 67.2124C112.759 67.395 112.668 67.5942 112.552 67.8101C112.435 68.0259 112.294 68.2666 112.128 68.5322L102.292 83.9219H112.801C112.934 83.9219 113.05 83.9551 113.149 84.0215C113.266 84.0713 113.357 84.1626 113.423 84.2954C113.506 84.4282 113.573 84.6108 113.622 84.8433C113.672 85.0591 113.697 85.3247 113.697 85.6401ZM139.085 85.5903C139.085 85.9058 139.068 86.1797 139.035 86.4121C139.002 86.6279 138.944 86.8105 138.861 86.96C138.794 87.1094 138.703 87.2173 138.587 87.2837C138.487 87.3501 138.362 87.3833 138.213 87.3833H119.188C118.756 87.3833 118.407 87.2505 118.142 86.9849C117.876 86.7192 117.743 86.2959 117.743 85.7148V84.7935C117.743 84.5776 117.752 84.3784 117.768 84.1958C117.801 84.0132 117.86 83.8223 117.943 83.623C118.026 83.4072 118.142 83.1748 118.291 82.9258C118.441 82.6602 118.623 82.353 118.839 82.0044L133.706 58.7456H119.013C118.847 58.7456 118.706 58.7124 118.59 58.646C118.474 58.5796 118.374 58.48 118.291 58.3472C118.225 58.1978 118.175 58.0151 118.142 57.7993C118.109 57.5669 118.092 57.3013 118.092 57.0024C118.092 56.6704 118.109 56.3882 118.142 56.1558C118.175 55.9233 118.225 55.7324 118.291 55.583C118.374 55.4336 118.474 55.3257 118.59 55.2593C118.706 55.1929 118.847 55.1597 119.013 55.1597H136.943C137.391 55.1597 137.74 55.2925 137.989 55.5581C138.255 55.8071 138.387 56.1973 138.387 56.7285V57.6997C138.387 57.9653 138.371 58.2061 138.338 58.4219C138.304 58.6211 138.246 58.8286 138.163 59.0444C138.08 59.2603 137.964 59.4927 137.815 59.7417C137.682 59.9907 137.499 60.2812 137.267 60.6133L122.475 83.7725H138.213C138.495 83.7725 138.711 83.9136 138.861 84.1958C139.01 84.478 139.085 84.9429 139.085 85.5903ZM11.3267 104.068C9.74951 107.405 8.5708 110.833 7.79053 114.353C7.02686 117.855 6.64502 121.383 6.64502 124.936C6.64502 128.505 7.03516 132.042 7.81543 135.544C8.6123 139.047 9.76611 142.484 11.2769 145.854C11.3599 146.053 11.4014 146.219 11.4014 146.352C11.418 146.501 11.3682 146.618 11.252 146.701C11.1357 146.8 10.9531 146.867 10.7041 146.9C10.4717 146.95 10.1479 146.975 9.73291 146.975C9.43408 146.975 9.17676 146.966 8.96094 146.95C8.74512 146.933 8.5542 146.9 8.38818 146.85C8.23877 146.8 8.11426 146.742 8.01465 146.676C7.91504 146.609 7.84033 146.535 7.79053 146.452C6.89404 144.758 6.10547 143.04 5.4248 141.297C4.74414 139.57 4.17139 137.811 3.70654 136.018C3.2417 134.225 2.89307 132.415 2.66064 130.589C2.42822 128.746 2.31201 126.887 2.31201 125.011C2.31201 123.135 2.43652 121.284 2.68555 119.458C2.95117 117.631 3.31641 115.822 3.78125 114.029C4.2627 112.219 4.84375 110.443 5.52441 108.7C6.20508 106.957 6.96875 105.23 7.81543 103.52C7.83203 103.454 7.87354 103.396 7.93994 103.346C8.02295 103.296 8.13086 103.246 8.26367 103.196C8.39648 103.146 8.5791 103.113 8.81152 103.097C9.04395 103.063 9.34277 103.047 9.70801 103.047C10.0898 103.047 10.397 103.072 10.6294 103.122C10.8618 103.171 11.0444 103.238 11.1772 103.321C11.3101 103.404 11.3848 103.512 11.4014 103.645C11.418 103.777 11.3931 103.918 11.3267 104.068ZM40.9595 125.808C40.9595 126.455 40.8847 126.903 40.7353 127.152C40.5859 127.401 40.3701 127.526 40.0879 127.526H29.6787C29.3799 127.526 29.1557 127.401 29.0063 127.152C28.8569 126.887 28.7822 126.438 28.7822 125.808C28.7822 125.177 28.8569 124.737 29.0063 124.488C29.1557 124.239 29.3799 124.114 29.6787 124.114H40.0879C40.2207 124.114 40.3369 124.139 40.4365 124.189C40.5527 124.239 40.644 124.338 40.7104 124.488C40.7934 124.621 40.8515 124.795 40.8847 125.011C40.9346 125.227 40.9595 125.492 40.9595 125.808ZM52.3269 135.669C52.3269 136.848 52.1277 137.636 51.7292 138.035C51.3474 138.417 50.6418 138.607 49.6125 138.607C48.6164 138.607 47.9275 138.417 47.5456 138.035C47.1638 137.653 46.9729 136.889 46.9729 135.744C46.9729 134.565 47.1638 133.785 47.5456 133.403C47.9441 133.004 48.6579 132.805 49.6872 132.805C50.6833 132.805 51.3723 132.996 51.7541 133.378C52.136 133.76 52.3269 134.523 52.3269 135.669ZM67.6787 125.808C67.6787 126.455 67.604 126.903 67.4546 127.152C67.3051 127.401 67.0893 127.526 66.8071 127.526H56.3979C56.0991 127.526 55.875 127.401 55.7255 127.152C55.5761 126.887 55.5014 126.438 55.5014 125.808C55.5014 125.177 55.5761 124.737 55.7255 124.488C55.875 124.239 56.0991 124.114 56.3979 124.114H66.8071C66.9399 124.114 67.0561 124.139 67.1557 124.189C67.2719 124.239 67.3632 124.338 67.4296 124.488C67.5127 124.621 67.5708 124.795 67.604 125.011C67.6538 125.227 67.6787 125.492 67.6787 125.808ZM82.0593 125.011C82.0593 126.887 81.9431 128.746 81.7106 130.589C81.4782 132.415 81.1296 134.225 80.6647 136.018C80.1999 137.811 79.6272 139.57 78.9465 141.297C78.2824 143.04 77.5022 144.758 76.6057 146.452C76.5559 146.535 76.4812 146.609 76.3815 146.676C76.2819 146.742 76.1491 146.8 75.9831 146.85C75.8337 146.9 75.6511 146.933 75.4353 146.95C75.2194 146.966 74.9621 146.975 74.6633 146.975C74.2316 146.975 73.8913 146.95 73.6423 146.9C73.4099 146.867 73.2355 146.8 73.1193 146.701C73.0197 146.618 72.9699 146.501 72.9699 146.352C72.9865 146.219 73.0363 146.053 73.1193 145.854C74.6467 142.5 75.8005 139.072 76.5808 135.569C77.361 132.05 77.7512 128.505 77.7512 124.936C77.7512 121.383 77.361 117.855 76.5808 114.353C75.8005 110.833 74.6301 107.405 73.0695 104.068C73.0031 103.918 72.9782 103.777 72.9948 103.645C73.0114 103.512 73.0861 103.404 73.2189 103.321C73.3518 103.238 73.5344 103.171 73.7668 103.122C73.9992 103.072 74.3064 103.047 74.6882 103.047C75.0368 103.047 75.3273 103.063 75.5598 103.097C75.7922 103.113 75.9748 103.146 76.1076 103.196C76.257 103.246 76.3649 103.296 76.4314 103.346C76.4978 103.396 76.5476 103.454 76.5808 103.52C78.2907 106.923 79.6272 110.426 80.59 114.029C81.5695 117.615 82.0593 121.275 82.0593 125.011ZM30.2773 172.898C30.2773 175.504 29.9702 177.854 29.356 179.945C28.7417 182.037 27.8203 183.822 26.5918 185.299C25.3799 186.76 23.8525 187.889 22.0098 188.686C20.167 189.466 18.0171 189.856 15.5601 189.856C13.1362 189.856 11.0361 189.5 9.25977 188.786C7.5 188.055 6.03906 187.001 4.87695 185.623C3.73145 184.245 2.87646 182.535 2.31201 180.493C1.74756 178.451 1.46533 176.102 1.46533 173.446C1.46533 170.906 1.77246 168.598 2.38672 166.523C3.00098 164.448 3.92236 162.688 5.15088 161.244C6.37939 159.783 7.91504 158.662 9.75781 157.882C11.6006 157.085 13.7505 156.687 16.2075 156.687C18.5815 156.687 20.6484 157.043 22.4082 157.757C24.168 158.471 25.6289 159.517 26.791 160.895C27.9697 162.256 28.8413 163.95 29.4058 165.975C29.9868 167.984 30.2773 170.292 30.2773 172.898ZM25.77 173.197C25.77 171.371 25.604 169.677 25.272 168.117C24.9565 166.54 24.417 165.178 23.6533 164.033C22.9062 162.871 21.9019 161.966 20.6401 161.318C19.3784 160.671 17.8179 160.347 15.9585 160.347C14.0991 160.347 12.5386 160.696 11.2769 161.393C10.0151 162.09 8.98584 163.02 8.18896 164.182C7.40869 165.344 6.84424 166.706 6.49561 168.266C6.16357 169.81 5.99756 171.437 5.99756 173.147C5.99756 175.04 6.15527 176.783 6.4707 178.376C6.78613 179.97 7.31738 181.348 8.06445 182.51C8.81152 183.656 9.80762 184.552 11.0527 185.2C12.3145 185.831 13.8916 186.146 15.7842 186.146C17.6602 186.146 19.2373 185.797 20.5156 185.1C21.7939 184.403 22.8232 183.465 23.6035 182.286C24.3838 181.091 24.9399 179.713 25.272 178.152C25.604 176.592 25.77 174.94 25.77 173.197ZM58.7776 196.804C58.7776 197.385 58.7112 197.809 58.5784 198.074C58.4455 198.34 58.238 198.473 57.9558 198.473H33.9748C33.6926 198.473 33.4768 198.348 33.3274 198.099C33.178 197.85 33.1033 197.435 33.1033 196.854C33.1033 196.29 33.178 195.866 33.3274 195.584C33.4768 195.302 33.6926 195.161 33.9748 195.161H57.9558C58.2214 195.161 58.4206 195.293 58.5535 195.559C58.7029 195.825 58.7776 196.24 58.7776 196.804ZM71.5146 155.068C69.9375 158.405 68.7588 161.833 67.9785 165.353C67.2148 168.855 66.833 172.383 66.833 175.936C66.833 179.505 67.2231 183.042 68.0034 186.544C68.8003 190.047 69.9541 193.484 71.4648 196.854C71.5478 197.053 71.5893 197.219 71.5893 197.352C71.6059 197.501 71.5561 197.618 71.4399 197.701C71.3237 197.8 71.1411 197.867 70.8921 197.9C70.6596 197.95 70.3359 197.975 69.9209 197.975C69.6221 197.975 69.3647 197.966 69.1489 197.95C68.9331 197.933 68.7422 197.9 68.5762 197.85C68.4267 197.8 68.3022 197.742 68.2026 197.676C68.103 197.609 68.0283 197.535 67.9785 197.452C67.082 195.758 66.2934 194.04 65.6128 192.297C64.9321 190.57 64.3594 188.811 63.8945 187.018C63.4297 185.225 63.081 183.415 62.8486 181.589C62.6162 179.746 62.5 177.887 62.5 176.011C62.5 174.135 62.6245 172.284 62.8735 170.458C63.1391 168.631 63.5044 166.822 63.9692 165.029C64.4507 163.219 65.0317 161.443 65.7124 159.7C66.393 157.957 67.1567 156.23 68.0034 154.52C68.02 154.454 68.0615 154.396 68.1279 154.346C68.2109 154.296 68.3188 154.246 68.4516 154.196C68.5845 154.146 68.7671 154.113 68.9995 154.097C69.2319 154.063 69.5307 154.047 69.896 154.047C70.2778 154.047 70.5849 154.072 70.8174 154.122C71.0498 154.171 71.2324 154.238 71.3652 154.321C71.498 154.404 71.5727 154.512 71.5893 154.645C71.6059 154.777 71.581 154.918 71.5146 155.068ZM91.1994 166.921C91.1994 167.054 91.1745 167.17 91.1247 167.27C91.0749 167.37 90.9836 167.453 90.8508 167.519C90.718 167.585 90.552 167.635 90.3528 167.668C90.1701 167.702 89.9294 167.718 89.6306 167.718C89.3318 167.718 89.0827 167.702 88.8835 167.668C88.6843 167.635 88.5183 167.585 88.3855 167.519C88.2693 167.453 88.1862 167.37 88.1364 167.27C88.0866 167.17 88.0617 167.054 88.0617 166.921L87.489 155.392C87.489 155.259 87.5305 155.143 87.6135 155.043C87.6965 154.943 87.821 154.86 87.987 154.794C88.153 154.728 88.3689 154.678 88.6345 154.645C88.9167 154.611 89.2487 154.595 89.6306 154.595C90.029 154.595 90.3611 154.611 90.6267 154.645C90.9089 154.678 91.133 154.728 91.299 154.794C91.4651 154.86 91.5813 154.943 91.6477 155.043C91.7307 155.143 91.7639 155.259 91.7473 155.392L91.1994 166.921ZM82.3591 166.921C82.3591 167.054 82.3342 167.17 82.2844 167.27C82.2346 167.37 82.1433 167.453 82.0105 167.519C81.8777 167.585 81.7116 167.635 81.5124 167.668C81.3298 167.702 81.0891 167.718 80.7903 167.718C80.4914 167.718 80.2424 167.702 80.0432 167.668C79.844 167.635 79.6779 167.585 79.5451 167.519C79.4289 167.453 79.3459 167.37 79.2961 167.27C79.2463 167.17 79.2214 167.054 79.2214 166.921L78.6487 155.392C78.6487 155.259 78.6902 155.143 78.7732 155.043C78.8562 154.943 78.9807 154.86 79.1467 154.794C79.3127 154.728 79.5285 154.678 79.7942 154.645C80.0764 154.611 80.4084 154.595 80.7903 154.595C81.5871 154.595 82.1433 154.661 82.4587 154.794C82.7741 154.927 82.9319 155.126 82.9319 155.392L82.3591 166.921ZM108.294 176.011C108.294 177.887 108.178 179.746 107.946 181.589C107.713 183.415 107.365 185.225 106.9 187.018C106.435 188.811 105.862 190.57 105.182 192.297C104.518 194.04 103.737 195.758 102.841 197.452C102.791 197.535 102.716 197.609 102.617 197.676C102.517 197.742 102.384 197.8 102.218 197.85C102.069 197.9 101.886 197.933 101.67 197.95C101.455 197.966 101.197 197.975 100.898 197.975C100.467 197.975 100.126 197.95 99.8774 197.9C99.645 197.867 99.4707 197.8 99.3545 197.701C99.2548 197.618 99.205 197.501 99.205 197.352C99.2216 197.219 99.2714 197.053 99.3545 196.854C100.882 193.5 102.036 190.072 102.816 186.569C103.596 183.05 103.986 179.505 103.986 175.936C103.986 172.383 103.596 168.855 102.816 165.353C102.036 161.833 100.865 158.405 99.3046 155.068C99.2382 154.918 99.2133 154.777 99.2299 154.645C99.2465 154.512 99.3213 154.404 99.4541 154.321C99.5869 154.238 99.7695 154.171 100.002 154.122C100.234 154.072 100.541 154.047 100.923 154.047C101.272 154.047 101.562 154.063 101.795 154.097C102.027 154.113 102.21 154.146 102.343 154.196C102.492 154.246 102.6 154.296 102.666 154.346C102.733 154.396 102.783 154.454 102.816 154.52C104.526 157.923 105.862 161.426 106.825 165.029C107.805 168.615 108.294 172.275 108.294 176.011ZM124.493 155.068C122.916 158.405 121.737 161.833 120.957 165.353C120.193 168.855 119.811 172.383 119.811 175.936C119.811 179.505 120.201 183.042 120.982 186.544C121.779 190.047 122.932 193.484 124.443 196.854C124.526 197.053 124.568 197.219 124.568 197.352C124.584 197.501 124.534 197.618 124.418 197.701C124.302 197.8 124.119 197.867 123.87 197.9C123.638 197.95 123.314 197.975 122.899 197.975C122.6 197.975 122.343 197.966 122.127 197.95C121.911 197.933 121.72 197.9 121.554 197.85C121.405 197.8 121.28 197.742 121.181 197.676C121.081 197.609 121.007 197.535 120.957 197.452C120.06 195.758 119.272 194.04 118.591 192.297C117.91 190.57 117.338 188.811 116.873 187.018C116.408 185.225 116.059 183.415 115.827 181.589C115.594 179.746 115.478 177.887 115.478 176.011C115.478 174.135 115.603 172.284 115.852 170.458C116.117 168.631 116.483 166.822 116.947 165.029C117.429 163.219 118.01 161.443 118.691 159.7C119.371 157.957 120.135 156.23 120.982 154.52C120.998 154.454 121.04 154.396 121.106 154.346C121.189 154.296 121.297 154.246 121.43 154.196C121.563 154.146 121.745 154.113 121.978 154.097C122.21 154.063 122.509 154.047 122.874 154.047C123.256 154.047 123.563 154.072 123.796 154.122C124.028 154.171 124.211 154.238 124.343 154.321C124.476 154.404 124.551 154.512 124.568 154.645C124.584 154.777 124.559 154.918 124.493 155.068ZM144.178 166.921C144.178 167.054 144.153 167.17 144.103 167.27C144.053 167.37 143.962 167.453 143.829 167.519C143.696 167.585 143.53 167.635 143.331 167.668C143.148 167.702 142.908 167.718 142.609 167.718C142.31 167.718 142.061 167.702 141.862 167.668C141.663 167.635 141.497 167.585 141.364 167.519C141.247 167.453 141.164 167.37 141.115 167.27C141.065 167.17 141.04 167.054 141.04 166.921L140.467 155.392C140.467 155.259 140.509 155.143 140.592 155.043C140.675 154.943 140.799 154.86 140.965 154.794C141.131 154.728 141.347 154.678 141.613 154.645C141.895 154.611 142.227 154.595 142.609 154.595C143.007 154.595 143.339 154.611 143.605 154.645C143.887 154.678 144.111 154.728 144.277 154.794C144.443 154.86 144.56 154.943 144.626 155.043C144.709 155.143 144.742 155.259 144.726 155.392L144.178 166.921ZM135.337 166.921C135.337 167.054 135.312 167.17 135.263 167.27C135.213 167.37 135.122 167.453 134.989 167.519C134.856 167.585 134.69 167.635 134.491 167.668C134.308 167.702 134.067 167.718 133.768 167.718C133.47 167.718 133.221 167.702 133.021 167.668C132.822 167.635 132.656 167.585 132.523 167.519C132.407 167.453 132.324 167.37 132.274 167.27C132.225 167.17 132.2 167.054 132.2 166.921L131.627 155.392C131.627 155.259 131.668 155.143 131.751 155.043C131.834 154.943 131.959 154.86 132.125 154.794C132.291 154.728 132.507 154.678 132.772 154.645C133.055 154.611 133.387 154.595 133.768 154.595C134.565 154.595 135.122 154.661 135.437 154.794C135.752 154.927 135.91 155.126 135.91 155.392L135.337 166.921ZM161.273 176.011C161.273 177.887 161.156 179.746 160.924 181.589C160.692 183.415 160.343 185.225 159.878 187.018C159.413 188.811 158.841 190.57 158.16 192.297C157.496 194.04 156.716 195.758 155.819 197.452C155.769 197.535 155.695 197.609 155.595 197.676C155.495 197.742 155.362 197.8 155.196 197.85C155.047 197.9 154.864 197.933 154.649 197.95C154.433 197.966 154.175 197.975 153.877 197.975C153.445 197.975 153.105 197.95 152.856 197.9C152.623 197.867 152.449 197.8 152.333 197.701C152.233 197.618 152.183 197.501 152.183 197.352C152.2 197.219 152.25 197.053 152.333 196.854C153.86 193.5 155.014 190.072 155.794 186.569C156.574 183.05 156.965 179.505 156.965 175.936C156.965 172.383 156.574 168.855 155.794 165.353C155.014 161.833 153.843 158.405 152.283 155.068C152.216 154.918 152.192 154.777 152.208 154.645C152.225 154.512 152.299 154.404 152.432 154.321C152.565 154.238 152.748 154.171 152.98 154.122C153.213 154.072 153.52 154.047 153.902 154.047C154.25 154.047 154.541 154.063 154.773 154.097C155.006 154.113 155.188 154.146 155.321 154.196C155.47 154.246 155.578 154.296 155.645 154.346C155.711 154.396 155.761 154.454 155.794 154.52C157.504 157.923 158.841 161.426 159.803 165.029C160.783 168.615 161.273 172.275 161.273 176.011Z" fill="#616161"/>
</svg>
