<svg width="200" height="200" viewBox="0 0 200 200" fill="none" xmlns="http://www.w3.org/2000/svg">
<path d="M14.2213 96.9147C12.4031 94.8168 10.8414 92.4625 9.53604 89.8518C8.23069 87.2411 7.22837 84.4983 6.52907 81.6235C5.82978 78.7486 5.49567 75.8737 5.52675 72.9988C5.49567 70.1084 5.82978 67.2258 6.52907 64.3509C7.22837 61.476 8.23069 58.741 9.53604 56.1458C10.8414 53.5351 12.4031 51.1808 14.2213 49.0829L17.2982 51.4139C15.4645 53.5895 13.9571 55.8506 12.7761 58.1971C11.6106 60.5436 10.7481 62.9601 10.1887 65.4464C9.62928 67.9173 9.34179 70.4347 9.32625 72.9988C9.34179 75.5318 9.62928 78.0493 10.1887 80.5512C10.7637 83.0376 11.6339 85.4618 12.7994 87.8239C13.9804 90.1704 15.48 92.4159 17.2982 94.5604L14.2213 96.9147ZM23.9448 54.8172L32.8958 88.3833H28.6767L19.7257 54.8172H23.9448ZM48.576 96.9147C46.7578 94.8168 45.1961 92.4625 43.8907 89.8518C42.5854 87.2411 41.583 84.4983 40.8837 81.6235C40.1844 78.7486 39.8503 75.8737 39.8814 72.9988C39.8503 70.1084 40.1844 67.2258 40.8837 64.3509C41.583 61.476 42.5854 58.741 43.8907 56.1458C45.1961 53.5351 46.7578 51.1808 48.576 49.0829L51.6529 51.4139C49.8192 53.5895 48.3118 55.8506 47.1308 58.1971C45.9653 60.5436 45.1028 62.9601 44.5434 65.4464C43.9839 67.9173 43.6965 70.4347 43.6809 72.9988C43.6965 75.5318 43.9839 78.0493 44.5434 80.5512C45.1184 83.0376 45.9886 85.4618 47.1541 87.8239C48.3351 90.1704 49.8347 92.4159 51.6529 94.5604L48.576 96.9147ZM58.2994 54.8172L67.2504 88.3833H63.0313L54.0804 54.8172H58.2994ZM89.6479 88.3833V87.6374L104.916 66.9849H90.9066V63.2087H111.606V64.0012L96.3611 84.6071H110.813V88.3833H89.6479ZM113.482 88.3833V87.6374L131.221 58.7565H114.181V54.8172H138.214V55.6097L120.568 84.4439H137.981V88.3833H113.482ZM14.2213 147.915C12.4031 145.817 10.8414 143.463 9.53604 140.852C8.23069 138.241 7.22837 135.498 6.52907 132.623C5.82978 129.749 5.49567 126.874 5.52675 123.999C5.49567 121.108 5.82978 118.226 6.52907 115.351C7.22837 112.476 8.23069 109.741 9.53604 107.146C10.8414 104.535 12.4031 102.181 14.2213 100.083L17.2982 102.414C15.4645 104.59 13.9571 106.851 12.7761 109.197C11.6106 111.544 10.7481 113.96 10.1887 116.446C9.62928 118.917 9.34179 121.435 9.32625 123.999C9.34179 126.532 9.62928 129.049 10.1887 131.551C10.7637 134.038 11.6339 136.462 12.7994 138.824C13.9804 141.17 15.48 143.416 17.2982 145.56L14.2213 147.915ZM26.7278 126.4V122.973H40.7136V126.4H26.7278ZM45.1855 139.383V134.815H49.7542V139.383H45.1855ZM54.2078 126.4V122.973H68.1937V126.4H54.2078ZM73.7145 147.915L70.6376 145.56C72.4558 143.416 73.9476 141.17 75.1131 138.824C76.2941 136.462 77.1721 134.038 77.7471 131.551C78.3221 129.049 78.6096 126.532 78.6096 123.999C78.6096 121.435 78.3221 118.917 77.7471 116.446C77.1877 113.96 76.3174 111.544 75.1364 109.197C73.9709 106.851 72.4713 104.59 70.6376 102.414L73.7145 100.083C75.5327 102.181 77.0944 104.535 78.3998 107.146C79.7207 109.741 80.723 112.476 81.4068 115.351C82.1061 118.226 82.4402 121.108 82.4091 123.999C82.4402 126.874 82.1061 129.749 81.4068 132.623C80.723 135.498 79.7207 138.241 78.3998 140.852C77.0944 143.463 75.5327 145.817 73.7145 147.915ZM16.0628 191.083C12.7217 191.083 9.88568 190.344 7.5547 188.868C5.22372 187.392 3.44441 185.341 2.21675 182.714C1.00464 180.088 0.398589 177.05 0.398589 173.6C0.398589 170.15 1.00464 167.112 2.21675 164.486C3.44441 161.86 5.22372 159.809 7.5547 158.332C9.88568 156.856 12.7217 156.118 16.0628 156.118C19.4194 156.118 22.2632 156.856 24.5942 158.332C26.9252 159.809 28.6967 161.86 29.9088 164.486C31.1209 167.112 31.727 170.15 31.727 173.6C31.727 177.05 31.1209 180.088 29.9088 182.714C28.6967 185.341 26.9252 187.392 24.5942 188.868C22.2632 190.344 19.4194 191.083 16.0628 191.083ZM16.0628 187.12C18.5647 187.135 20.6471 186.576 22.3098 185.442C23.9881 184.292 25.2391 182.699 26.0627 180.663C26.9019 178.627 27.3214 176.273 27.3214 173.6C27.3214 170.912 26.9019 168.558 26.0627 166.537C25.2391 164.517 23.9881 162.94 22.3098 161.805C20.6471 160.671 18.5647 160.096 16.0628 160.081C13.5609 160.065 11.4785 160.624 9.81576 161.759C8.16853 162.893 6.92534 164.478 6.08618 166.514C5.24703 168.55 4.81968 170.912 4.80414 173.6C4.7886 176.273 5.20041 178.62 6.03956 180.64C6.87872 182.66 8.12968 184.245 9.79245 185.395C11.4708 186.529 13.5609 187.104 16.0628 187.12ZM30.8143 195.581V192.155H61.5832V195.581H30.8143ZM74.4808 198.915C72.6627 196.817 71.1009 194.463 69.7956 191.852C68.4902 189.241 67.4879 186.498 66.7886 183.623C66.0893 180.749 65.7552 177.874 65.7863 174.999C65.7552 172.108 66.0893 169.226 66.7886 166.351C67.4879 163.476 68.4902 160.741 69.7956 158.146C71.1009 155.535 72.6627 153.181 74.4808 151.083L77.5577 153.414C75.724 155.59 74.2166 157.851 73.0356 160.197C71.8701 162.544 71.0077 164.96 70.4482 167.446C69.8888 169.917 69.6013 172.435 69.5858 174.999C69.6013 177.532 69.8888 180.049 70.4482 182.551C71.0232 185.038 71.8934 187.462 73.0589 189.824C74.24 192.17 75.7396 194.416 77.5577 196.56L74.4808 198.915ZM79.9852 165.209V156.817H84.1344V165.209H79.9852ZM87.8173 165.209V156.817H91.9665V165.209H87.8173ZM99.3553 198.915L96.2784 196.56C98.0966 194.416 99.5884 192.17 100.754 189.824C101.935 187.462 102.813 185.038 103.388 182.551C103.963 180.049 104.25 177.532 104.25 174.999C104.25 172.435 103.963 169.917 103.388 167.446C102.828 164.96 101.958 162.544 100.777 160.197C99.6117 157.851 98.1121 155.59 96.2784 153.414L99.3553 151.083C101.173 153.181 102.735 155.535 104.041 158.146C105.361 160.741 106.364 163.476 107.048 166.351C107.747 169.226 108.081 172.108 108.05 174.999C108.081 177.874 107.747 180.749 107.048 183.623C106.364 186.498 105.361 189.241 104.041 191.852C102.735 194.463 101.173 196.817 99.3553 198.915ZM127.447 198.915C125.629 196.817 124.067 194.463 122.762 191.852C121.456 189.241 120.454 186.498 119.755 183.623C119.055 180.749 118.721 177.874 118.752 174.999C118.721 172.108 119.055 169.226 119.755 166.351C120.454 163.476 121.456 160.741 122.762 158.146C124.067 155.535 125.629 153.181 127.447 151.083L130.524 153.414C128.69 155.59 127.183 157.851 126.002 160.197C124.836 162.544 123.974 164.96 123.414 167.446C122.855 169.917 122.567 172.435 122.552 174.999C122.567 177.532 122.855 180.049 123.414 182.551C123.989 185.038 124.86 187.462 126.025 189.824C127.206 192.17 128.706 194.416 130.524 196.56L127.447 198.915ZM132.951 165.209V156.817H137.1V165.209H132.951ZM140.783 165.209V156.817H144.933V165.209H140.783ZM152.321 198.915L149.245 196.56C151.063 194.416 152.555 192.17 153.72 189.824C154.901 187.462 155.779 185.038 156.354 182.551C156.929 180.049 157.216 177.532 157.216 174.999C157.216 172.435 156.929 169.917 156.354 167.446C155.795 164.96 154.924 162.544 153.743 160.197C152.578 157.851 151.078 155.59 149.245 153.414L152.321 151.083C154.14 153.181 155.701 155.535 157.007 158.146C158.328 160.741 159.33 163.476 160.014 166.351C160.713 169.226 161.047 172.108 161.016 174.999C161.047 177.874 160.713 180.749 160.014 183.623C159.33 186.498 158.328 189.241 157.007 191.852C155.701 194.463 154.14 196.817 152.321 198.915Z" fill="#777777"/>
</svg>
