<svg width="200" height="200" viewBox="0 0 200 200" fill="none" xmlns="http://www.w3.org/2000/svg">
<path d="M11.2213 96.9147C9.40315 94.8168 7.84139 92.4625 6.53604 89.8518C5.23069 87.2411 4.22837 84.4983 3.52907 81.6235C2.82978 78.7486 2.49567 75.8737 2.52675 72.9988C2.49567 70.1084 2.82978 67.2258 3.52907 64.3509C4.22837 61.476 5.23069 58.741 6.53604 56.1458C7.84139 53.5351 9.40315 51.1808 11.2213 49.0829L14.2982 51.4139C12.4645 53.5895 10.9571 55.8506 9.7761 58.1971C8.61061 60.5436 7.74815 62.9601 7.18871 65.4464C6.62928 67.9173 6.34179 70.4347 6.32625 72.9988C6.34179 75.5318 6.62928 78.0493 7.18871 80.5512C7.76369 83.0376 8.63392 85.4618 9.79941 87.8239C10.9804 90.1704 12.48 92.4159 14.2982 94.5604L11.2213 96.9147ZM20.9448 54.8172L29.8958 88.3833H25.6767L16.7257 54.8172H20.9448ZM45.576 96.9147C43.7578 94.8168 42.1961 92.4625 40.8907 89.8518C39.5854 87.2411 38.583 84.4983 37.8837 81.6235C37.1844 78.7486 36.8503 75.8737 36.8814 72.9988C36.8503 70.1084 37.1844 67.2258 37.8837 64.3509C38.583 61.476 39.5854 58.741 40.8907 56.1458C42.1961 53.5351 43.7578 51.1808 45.576 49.0829L48.6529 51.4139C46.8192 53.5895 45.3118 55.8506 44.1308 58.1971C42.9653 60.5436 42.1028 62.9601 41.5434 65.4464C40.9839 67.9173 40.6965 70.4347 40.6809 72.9988C40.6965 75.5318 40.9839 78.0493 41.5434 80.5512C42.1184 83.0376 42.9886 85.4618 44.1541 87.8239C45.3351 90.1704 46.8347 92.4159 48.6529 94.5604L45.576 96.9147ZM55.2994 54.8172L64.2504 88.3833H60.0313L51.0804 54.8172H55.2994ZM86.6479 88.3833V87.6374L101.916 66.9849H87.9066V63.2087H108.606V64.0012L93.3611 84.6071H107.813V88.3833H86.6479ZM110.482 88.3833V87.6374L128.221 58.7565H111.181V54.8172H135.214V55.6097L117.568 84.4439H134.981V88.3833H110.482ZM11.2213 147.915C9.40315 145.817 7.84139 143.463 6.53604 140.852C5.23069 138.241 4.22837 135.498 3.52907 132.623C2.82978 129.749 2.49567 126.874 2.52675 123.999C2.49567 121.108 2.82978 118.226 3.52907 115.351C4.22837 112.476 5.23069 109.741 6.53604 107.146C7.84139 104.535 9.40315 102.181 11.2213 100.083L14.2982 102.414C12.4645 104.59 10.9571 106.851 9.7761 109.197C8.61061 111.544 7.74815 113.96 7.18871 116.446C6.62928 118.917 6.34179 121.435 6.32625 123.999C6.34179 126.532 6.62928 129.049 7.18871 131.551C7.76369 134.038 8.63392 136.462 9.79941 138.824C10.9804 141.17 12.48 143.416 14.2982 145.56L11.2213 147.915ZM23.7278 126.4V122.973H37.7136V126.4H23.7278ZM42.1855 139.383V134.815H46.7542V139.383H42.1855ZM51.2078 126.4V122.973H65.1937V126.4H51.2078ZM70.7145 147.915L67.6376 145.56C69.4558 143.416 70.9476 141.17 72.1131 138.824C73.2941 136.462 74.1721 134.038 74.7471 131.551C75.3221 129.049 75.6096 126.532 75.6096 123.999C75.6096 121.435 75.3221 118.917 74.7471 116.446C74.1877 113.96 73.3174 111.544 72.1364 109.197C70.9709 106.851 69.4713 104.59 67.6376 102.414L70.7145 100.083C72.5327 102.181 74.0944 104.535 75.3998 107.146C76.7207 109.741 77.723 112.476 78.4068 115.351C79.1061 118.226 79.4402 121.108 79.4091 123.999C79.4402 126.874 79.1061 129.749 78.4068 132.623C77.723 135.498 76.7207 138.241 75.3998 140.852C74.0944 143.463 72.5327 145.817 70.7145 147.915ZM20.0648 191.083C16.7238 191.083 13.8877 190.344 11.5568 188.868C9.22577 187.392 7.44646 185.341 6.2188 182.714C5.00669 180.088 4.40064 177.05 4.40064 173.6C4.40064 170.15 5.00669 167.112 6.2188 164.486C7.44646 161.86 9.22577 159.809 11.5568 158.332C13.8877 156.856 16.7238 156.118 20.0648 156.118C23.4215 156.118 26.2652 156.856 28.5962 158.332C30.9272 159.809 32.6988 161.86 33.9109 164.486C35.123 167.112 35.729 170.15 35.729 173.6C35.729 177.05 35.123 180.088 33.9109 182.714C32.6988 185.341 30.9272 187.392 28.5962 188.868C26.2652 190.344 23.4215 191.083 20.0648 191.083ZM20.0648 187.12C22.5668 187.135 24.6491 186.576 26.3119 185.442C27.9902 184.292 29.2411 182.699 30.0647 180.663C30.9039 178.627 31.3235 176.273 31.3235 173.6C31.3235 170.912 30.9039 168.558 30.0647 166.537C29.2411 164.517 27.9902 162.94 26.3119 161.805C24.6491 160.671 22.5668 160.096 20.0648 160.081C17.5629 160.065 15.4806 160.624 13.8178 161.759C12.1706 162.893 10.9274 164.478 10.0882 166.514C9.24908 168.55 8.82173 170.912 8.80619 173.6C8.79065 176.273 9.20246 178.62 10.0416 180.64C10.8808 182.66 12.1317 184.245 13.7945 185.395C15.4728 186.529 17.5629 187.104 20.0648 187.12ZM34.8163 195.581V192.155H65.5853V195.581H34.8163ZM78.4829 198.915C76.6647 196.817 75.103 194.463 73.7976 191.852C72.4923 189.241 71.4899 186.498 70.7906 183.623C70.0913 180.749 69.7572 177.874 69.7883 174.999C69.7572 172.108 70.0913 169.226 70.7906 166.351C71.4899 163.476 72.4923 160.741 73.7976 158.146C75.103 155.535 76.6647 153.181 78.4829 151.083L81.5598 153.414C79.7261 155.59 78.2187 157.851 77.0377 160.197C75.8722 162.544 75.0097 164.96 74.4503 167.446C73.8908 169.917 73.6034 172.435 73.5878 174.999C73.6034 177.532 73.8908 180.049 74.4503 182.551C75.0253 185.038 75.8955 187.462 77.061 189.824C78.242 192.17 79.7416 194.416 81.5598 196.56L78.4829 198.915ZM83.9873 165.209V156.817H88.1364V165.209H83.9873ZM91.8194 165.209V156.817H95.9685V165.209H91.8194ZM103.357 198.915L100.28 196.56C102.099 194.416 103.59 192.17 104.756 189.824C105.937 187.462 106.815 185.038 107.39 182.551C107.965 180.049 108.252 177.532 108.252 174.999C108.252 172.435 107.965 169.917 107.39 167.446C106.831 164.96 105.96 162.544 104.779 160.197C103.614 157.851 102.114 155.59 100.28 153.414L103.357 151.083C105.176 153.181 106.737 155.535 108.043 158.146C109.364 160.741 110.366 163.476 111.05 166.351C111.749 169.226 112.083 172.108 112.052 174.999C112.083 177.874 111.749 180.749 111.05 183.623C110.366 186.498 109.364 189.241 108.043 191.852C106.737 194.463 105.176 196.817 103.357 198.915ZM131.449 198.915C129.631 196.817 128.069 194.463 126.764 191.852C125.458 189.241 124.456 186.498 123.757 183.623C123.057 180.749 122.723 177.874 122.754 174.999C122.723 172.108 123.057 169.226 123.757 166.351C124.456 163.476 125.458 160.741 126.764 158.146C128.069 155.535 129.631 153.181 131.449 151.083L134.526 153.414C132.692 155.59 131.185 157.851 130.004 160.197C128.838 162.544 127.976 164.96 127.416 167.446C126.857 169.917 126.569 172.435 126.554 174.999C126.569 177.532 126.857 180.049 127.416 182.551C127.991 185.038 128.862 187.462 130.027 189.824C131.208 192.17 132.708 194.416 134.526 196.56L131.449 198.915ZM136.953 165.209V156.817H141.103V165.209H136.953ZM144.785 165.209V156.817H148.935V165.209H144.785ZM156.323 198.915L153.247 196.56C155.065 194.416 156.557 192.17 157.722 189.824C158.903 187.462 159.781 185.038 160.356 182.551C160.931 180.049 161.219 177.532 161.219 174.999C161.219 172.435 160.931 169.917 160.356 167.446C159.797 164.96 158.926 162.544 157.745 160.197C156.58 157.851 155.08 155.59 153.247 153.414L156.323 151.083C158.142 153.181 159.703 155.535 161.009 158.146C162.33 160.741 163.332 163.476 164.016 166.351C164.715 169.226 165.049 172.108 165.018 174.999C165.049 177.874 164.715 180.749 164.016 183.623C163.332 186.498 162.33 189.241 161.009 191.852C159.703 194.463 158.142 196.817 156.323 198.915Z" fill="#777777"/>
</svg>
