<svg width="125" height="20" viewBox="0 0 125 20" fill="none" xmlns="http://www.w3.org/2000/svg">
<path d="M89.9361 10.7147C76.9812 12.7937 68.2778 13.9587 68.1998 13.5458C68.1295 13.1471 76.0865 11.3831 88.191 9.03896C77.7429 6.98145 71.1626 5.50405 71.2174 5.15907C71.2773 4.81901 77.8109 5.65745 88.1227 7.26064L84.3853 0.137589H63.1744V19.3153H94.4498L89.9361 10.7147Z" fill="black"/>
<path d="M22.5342 0.137482C23.1217 0.137482 23.4159 0.137477 23.6641 0.151154C28.2574 0.404384 31.9255 4.07242 32.1787 8.6658C32.1924 8.91388 32.1924 9.20761 32.1924 9.79471C32.1924 10.3822 32.1924 10.6764 32.1787 10.9246C31.9255 15.518 28.2574 19.186 23.6641 19.4392C23.4159 19.4529 23.1217 19.4529 22.5342 19.4529H9.65723C9.07013 19.4529 8.7764 19.4529 8.52832 19.4392C3.93494 19.186 0.266903 15.518 0.0136719 10.9246C-1.48543e-06 10.6764 0 10.3822 0 9.79471C8.65667e-10 9.2076 6.87832e-06 8.91388 0.0136719 8.6658C0.266903 4.07242 3.93494 0.404384 8.52832 0.151154C8.7764 0.137489 9.07012 0.137482 9.65723 0.137482H22.5342ZM19.9131 1.69608C19.4605 1.46546 17.2818 4.83421 15.0469 9.22049C12.8122 13.6063 11.3671 17.3487 11.8193 17.5799C12.2719 17.8105 14.4507 14.4416 16.6855 10.0555C18.9199 5.67025 20.3646 1.92837 19.9131 1.69608Z" fill="black"/>
<path d="M114.534 0C115.122 0 115.416 -4.94329e-06 115.664 0.0136719C120.257 0.266903 123.925 3.93494 124.179 8.52832C124.188 8.69437 124.19 8.88088 124.191 9.16211H107.688C105.273 4.81319 103.202 1.69861 102.813 1.90234C102.364 2.14083 104.332 6.7196 107.208 12.1289C108.76 15.0472 110.26 17.6104 111.382 19.3154H101.657C101.07 19.3154 100.776 19.3154 100.528 19.3018C95.9349 19.0485 92.2669 15.3805 92.0137 10.7871C92 10.5389 92 10.2447 92 9.65723C92 9.07012 92 8.7764 92.0137 8.52832C92.2669 3.93494 95.9349 0.266903 100.528 0.0136719C100.776 6.89622e-06 101.07 8.77206e-10 101.657 0H114.534Z" fill="black"/>
<path d="M62.0459 19.3152H44.5234C49.3303 9.7645 52.7534 2.1925 52.333 1.9783C51.8994 1.76015 47.557 9.4084 42.4707 19.3152H29.331L36.1035 6.52322C38.1832 2.59486 42.264 0.137482 46.709 0.137482H62.0459V19.3152Z" fill="black"/>
</svg>
