<svg width="125" height="51" viewBox="0 0 125 51" fill="none" xmlns="http://www.w3.org/2000/svg">
<path fill-rule="evenodd" clip-rule="evenodd" d="M89.9381 10.7184C76.9787 12.7979 68.2734 13.9593 68.2004 13.5453C68.1301 13.1466 76.0841 11.3824 88.1859 9.03873C77.7361 6.98083 71.1565 5.50264 71.2172 5.15857C71.2771 4.81851 77.811 5.65586 88.1227 7.25893L84.3856 0.13755H63.1744V19.3153H94.4496L89.9381 10.7184Z" fill="black"/>
<path fill-rule="evenodd" clip-rule="evenodd" d="M0.0136832 8.66553C0 8.91373 0 9.20753 0 9.79514C0 10.3828 0 10.6766 0.0136832 10.9248C0.266914 15.5181 3.93467 19.1859 8.52805 19.4391C8.77625 19.4528 9.07006 19.4528 9.65766 19.4528H22.5346C23.1222 19.4528 23.416 19.4528 23.6642 19.4391C28.2576 19.1859 31.9253 15.5181 32.1785 10.9248C32.1922 10.6766 32.1922 10.3828 32.1922 9.79514C32.1922 9.20753 32.1922 8.91373 32.1785 8.66553C31.9253 4.07215 28.2576 0.404388 23.6642 0.151157C23.416 0.137474 23.1222 0.137474 22.5346 0.137474H9.65767C9.07006 0.137474 8.77625 0.137474 8.52805 0.151157C3.93467 0.404388 0.266914 4.07215 0.0136832 8.66553ZM19.9129 1.69562C20.3655 1.92624 18.9207 5.66898 16.6857 10.0553C14.4508 14.4415 12.2721 17.8104 11.8195 17.5798C11.3669 17.3491 12.8118 13.6064 15.0467 9.22012C17.2816 4.83384 19.4603 1.46501 19.9129 1.69562Z" fill="black"/>
<path fill-rule="evenodd" clip-rule="evenodd" d="M92 9.65766C92 9.07005 92 8.77625 92.0137 8.52804C92.2669 3.93467 95.9347 0.266906 100.528 0.0136756C100.776 -7.62939e-06 101.07 -7.62939e-06 101.658 -7.62939e-06H114.535C115.122 -7.62939e-06 115.416 -7.62939e-06 115.664 0.0136756C120.258 0.266906 123.925 3.93467 124.179 8.52804C124.188 8.69421 124.191 8.88081 124.192 9.16232H107.69C105.273 4.81133 103.2 1.69625 102.812 1.90275C102.364 2.14123 104.332 6.71966 107.208 12.129C108.759 15.0467 110.258 17.6102 111.38 19.3153H101.658C101.07 19.3153 100.776 19.3153 100.528 19.3016C95.9347 19.0484 92.2669 15.3807 92.0137 10.7873C92 10.5391 92 10.2453 92 9.65766Z" fill="black"/>
<path fill-rule="evenodd" clip-rule="evenodd" d="M46.7089 0.137474C42.264 0.137474 38.1832 2.59446 36.1035 6.52282L29.331 19.3152H42.47C47.5571 9.40689 51.9005 1.75835 52.333 1.97873C52.7534 2.19292 49.3317 9.76482 44.525 19.3152H62.046V0.137474H46.7089Z" fill="black"/>
<path d="M0.89 44V24.56H4.1435V33.578L11.906 24.56H15.902L7.5455 34.091L16.469 44H12.338L4.1435 34.928V44H0.89ZM24.8379 44.405C23.4159 44.405 22.2234 44.0675 21.2604 43.3925C20.2974 42.7175 19.5729 41.7995 19.0869 40.6385C18.6009 39.4685 18.3579 38.159 18.3579 36.71C18.3579 35.243 18.6009 33.929 19.0869 32.768C19.5729 31.607 20.2839 30.6935 21.2199 30.0275C22.1649 29.3525 23.3304 29.015 24.7164 29.015C26.0934 29.015 27.2859 29.3525 28.2939 30.0275C29.3109 30.6935 30.0984 31.607 30.6564 32.768C31.2144 33.92 31.4934 35.234 31.4934 36.71C31.4934 38.168 31.2189 39.4775 30.6699 40.6385C30.1209 41.7995 29.3469 42.7175 28.3479 43.3925C27.3489 44.0675 26.1789 44.405 24.8379 44.405ZM17.8044 50.48V29.42H20.6799V39.653H21.0849V50.48H17.8044ZM24.3384 41.489C25.1844 41.489 25.8819 41.2775 26.4309 40.8545C26.9799 40.4315 27.3849 39.86 27.6459 39.14C27.9159 38.411 28.0509 37.601 28.0509 36.71C28.0509 35.828 27.9159 35.027 27.6459 34.307C27.3759 33.578 26.9574 33.002 26.3904 32.579C25.8234 32.147 25.1034 31.931 24.2304 31.931C23.4024 31.931 22.7274 32.1335 22.2054 32.5385C21.6834 32.9345 21.2964 33.4925 21.0444 34.2125C20.8014 34.9235 20.6799 35.756 20.6799 36.71C20.6799 37.655 20.8014 38.4875 21.0444 39.2075C21.2964 39.9275 21.6879 40.49 22.2189 40.895C22.7589 41.291 23.4654 41.489 24.3384 41.489ZM46.5651 29.42V44H43.4466V34.4825L36.5076 44H33.9021V29.42H37.0206V38.6945L43.9866 29.42H46.5651ZM49.7889 44V29.42H56.4174C56.8944 29.42 57.3399 29.447 57.7539 29.501C58.1679 29.555 58.5234 29.6225 58.8204 29.7035C59.5224 29.9105 60.1434 30.3155 60.6834 30.9185C61.2234 31.5125 61.4934 32.336 61.4934 33.389C61.4934 34.01 61.3944 34.523 61.1964 34.928C60.9984 35.324 60.7374 35.657 60.4134 35.927C60.2604 36.053 60.1029 36.161 59.9409 36.251C59.7789 36.341 59.6169 36.413 59.4549 36.467C59.8059 36.521 60.1389 36.6245 60.4539 36.7775C60.9489 37.0205 61.3629 37.3805 61.6959 37.8575C62.0379 38.3345 62.2089 39.005 62.2089 39.869C62.2089 40.85 61.9704 41.678 61.4934 42.353C61.0254 43.019 60.3369 43.4825 59.4279 43.7435C59.0949 43.8335 58.7124 43.901 58.2804 43.946C57.8484 43.982 57.4074 44 56.9574 44H49.7889ZM53.0829 41.489H56.7279C56.9169 41.489 57.1239 41.471 57.3489 41.435C57.5739 41.399 57.7764 41.3495 57.9564 41.2865C58.2804 41.1695 58.5144 40.9625 58.6584 40.6655C58.8114 40.3685 58.8879 40.058 58.8879 39.734C58.8879 39.293 58.7754 38.942 58.5504 38.681C58.3344 38.411 58.0734 38.231 57.7674 38.141C57.5874 38.069 57.3894 38.0285 57.1734 38.0195C56.9664 38.0015 56.7954 37.9925 56.6604 37.9925H53.0829V41.489ZM53.0829 35.441H55.7829C56.0619 35.441 56.3319 35.4275 56.5929 35.4005C56.8629 35.3645 57.0879 35.306 57.2679 35.225C57.5649 35.108 57.7809 34.91 57.9159 34.631C58.0599 34.352 58.1319 34.0415 58.1319 33.6995C58.1319 33.3395 58.0509 33.0155 57.8889 32.7275C57.7359 32.4305 57.4884 32.2325 57.1464 32.1335C56.9214 32.0435 56.6469 31.994 56.3229 31.985C56.0079 31.976 55.8054 31.9715 55.7154 31.9715H53.0829V35.441ZM70.9864 44.405C69.5104 44.405 68.2144 44.0855 67.0984 43.4465C65.9824 42.8075 65.1094 41.921 64.4794 40.787C63.8584 39.653 63.5479 38.348 63.5479 36.872C63.5479 35.279 63.8539 33.8975 64.4659 32.7275C65.0779 31.5485 65.9284 30.635 67.0174 29.987C68.1064 29.339 69.3664 29.015 70.7974 29.015C72.3094 29.015 73.5919 29.3705 74.6449 30.0815C75.7069 30.7835 76.4944 31.778 77.0074 33.065C77.5204 34.352 77.7139 35.8685 77.5879 37.6145H74.3614V36.4265C74.3524 34.8425 74.0734 33.686 73.5244 32.957C72.9754 32.228 72.1114 31.8635 70.9324 31.8635C69.6004 31.8635 68.6104 32.2775 67.9624 33.1055C67.3144 33.9245 66.9904 35.126 66.9904 36.71C66.9904 38.186 67.3144 39.329 67.9624 40.139C68.6104 40.949 69.5554 41.354 70.7974 41.354C71.5984 41.354 72.2869 41.1785 72.8629 40.8275C73.4479 40.4675 73.8979 39.95 74.2129 39.275L77.4259 40.247C76.8679 41.561 76.0039 42.5825 74.8339 43.3115C73.6729 44.0405 72.3904 44.405 70.9864 44.405ZM65.9644 37.6145V35.1575H75.9949V37.6145H65.9644ZM80.0331 44V29.42H83.2866V35.171H89.8341V29.42H93.0876V44H89.8341V38.222H83.2866V44H80.0331ZM96.289 44L96.316 29.42H99.61V36.44L104.943 29.42H109.006L103.35 36.71L109.492 44H105.186L99.61 36.98V44H96.289ZM116.48 44.405C115.022 44.405 113.749 44.0765 112.66 43.4195C111.571 42.7625 110.725 41.858 110.122 40.706C109.528 39.545 109.231 38.213 109.231 36.71C109.231 35.18 109.537 33.839 110.149 32.687C110.761 31.535 111.611 30.635 112.7 29.987C113.789 29.339 115.049 29.015 116.48 29.015C117.947 29.015 119.225 29.3435 120.314 30.0005C121.403 30.6575 122.249 31.5665 122.852 32.7275C123.455 33.8795 123.757 35.207 123.757 36.71C123.757 38.222 123.451 39.5585 122.839 40.7195C122.236 41.8715 121.39 42.776 120.301 43.433C119.212 44.081 117.938 44.405 116.48 44.405ZM116.48 41.354C117.776 41.354 118.739 40.922 119.369 40.058C119.999 39.194 120.314 38.078 120.314 36.71C120.314 35.297 119.995 34.172 119.356 33.335C118.717 32.489 117.758 32.066 116.48 32.066C115.607 32.066 114.887 32.264 114.32 32.66C113.762 33.047 113.348 33.5915 113.078 34.2935C112.808 34.9865 112.673 35.792 112.673 36.71C112.673 38.123 112.993 39.2525 113.632 40.0985C114.28 40.9355 115.229 41.354 116.48 41.354Z" fill="black"/>
</svg>
